<?xml version="1.0" encoding="utf-8"?>
<!-- Generator: Adobe Illustrator 22.0.1, SVG Export Plug-In . SVG Version: 6.00 Build 0)  -->
<svg version="1.1" id="Layer_1" xmlns="http://www.w3.org/2000/svg" xmlns:xlink="http://www.w3.org/1999/xlink" x="0px" y="0px"
	 viewBox="0 0 197.3 185" style="enable-background:new 0 0 197.3 185;" xml:space="preserve">
<style type="text/css">
	.st0{fill:#353434;}
	.st1{fill:none;stroke:#343434;stroke-width:2;stroke-miterlimit:10;}
	.st2{filter:url(#Adobe_OpacityMaskFilter);}
	.st3{opacity:0.75;mask:url(#SVGID_1_);}
	.st4{fill:none;stroke:#FFFFFF;stroke-width:2;stroke-miterlimit:10;}
</style>
<g>
	<path class="st0" d="M139.1,69.3h-4.3L125.9,54c-0.3-0.5-0.8-0.8-1.3-0.9c-0.5-0.1-1.1,0-1.6,0.3l-10.2,7l-5.5-6.7
		c-0.3-0.4-0.8-0.7-1.4-0.7s-1.1,0.2-1.5,0.6L88.9,69.3h-4.6c-4.3,0-7.8,3.5-7.8,7.8v40c0,4.3,3.5,7.8,7.8,7.8h54.8
		c4.3,0,7.8-3.5,7.8-7.8v-40C146.9,72.8,143.4,69.3,139.1,69.3z M142.9,104.9h-12.7c-4.3,0-7.8-3.5-7.8-7.8c0-4.3,3.5-7.8,7.8-7.8
		h12.7V104.9z M123.5,57.9l6.7,11.4H120l-4.7-5.7L123.5,57.9z M105.7,58l9.2,11.3H94.5L105.7,58z M139.1,121H84.3
		c-2.1,0-3.8-1.7-3.8-3.8v-40c0-2.1,1.7-3.8,3.8-3.8h54.8c2.1,0,3.8,1.7,3.8,3.8v8.2h-12.7c-6.5,0-11.8,5.3-11.8,11.8
		s5.3,11.7,11.8,11.7h12.7v8.2C142.9,119.3,141.2,121,139.1,121z"/>
	<circle class="st0" cx="130.5" cy="97.1" r="2.9"/>
</g>
<g>
	<g>
		<circle class="st1" cx="111.7" cy="88.9" r="53"/>
	</g>
	<defs>
		<filter id="Adobe_OpacityMaskFilter" filterUnits="userSpaceOnUse" x="57.7" y="35" width="108" height="108">
			
				<feColorMatrix  type="matrix" values="-1 0 0 0 1  0 -1 0 0 1  0 0 -1 0 1  0 0 0 1 0" color-interpolation-filters="sRGB" result="source"/>
		</filter>
	</defs>
	<mask maskUnits="userSpaceOnUse" x="57.7" y="35" width="108" height="108" id="SVGID_1_">
		<g class="st2">
			<image style="overflow:visible;" width="112" height="113" xlink:href="405C78F5.jpg"  transform="matrix(1 0 0 1 55.6667 32)">
			</image>
		</g>
	</mask>
	<g class="st3">
		<circle class="st4" cx="111.7" cy="88.9" r="53"/>
	</g>
</g>
</svg>
