<svg id="Layer_1" data-name="Layer 1" xmlns="http://www.w3.org/2000/svg" viewBox="0 0 107.9 107.91"><defs><style>.cls-1{fill:#353434;}.cls-2{fill:#343434;}</style></defs><title>pay1</title><path class="cls-1" d="M64.4,17.3H60.1L51.2,2a2,2,0,0,0-1.3-.9,2.32,2.32,0,0,0-1.6.3l-10.2,7L32.6,1.7A1.75,1.75,0,0,0,31.2,1a2,2,0,0,0-1.5.6L14.2,17.3H9.6a7.81,7.81,0,0,0-7.8,7.8v40a7.81,7.81,0,0,0,7.8,7.8H64.4a7.81,7.81,0,0,0,7.8-7.8v-40A7.81,7.81,0,0,0,64.4,17.3Zm3.8,35.6H55.5a7.8,7.8,0,1,1,0-15.6H68.2ZM48.8,5.9l6.7,11.4H45.3l-4.7-5.7ZM31,6l9.2,11.3H19.8ZM64.4,69H9.6a3.8,3.8,0,0,1-3.8-3.8v-40a3.8,3.8,0,0,1,3.8-3.8H64.4a3.8,3.8,0,0,1,3.8,3.8v8.2H55.5a11.75,11.75,0,1,0,0,23.5H68.2v8.2A3.82,3.82,0,0,1,64.4,69Z" transform="translate(17.8 17)"/><circle class="cls-1" cx="73.6" cy="62.1" r="2.9"/><path class="cls-2" d="M90.1,37A53.22,53.22,0,0,1,74.72,74.67,53.79,53.79,0,0,1,37,90.9a54.4,54.4,0,0,1-20.77-3.81A53.79,53.79,0,0,1-1.58,75.53,54.79,54.79,0,0,1-17.8,37,55.18,55.18,0,0,1-13.51,16,54.77,54.77,0,0,1-1.57-1.62,53.85,53.85,0,0,1,16.24-13.18a53.88,53.88,0,0,1,41.28.58A54.54,54.54,0,0,1,74.72-.77,53.22,53.22,0,0,1,90.1,37Zm-.2,0A52.87,52.87,0,0,0,37-15.9,52.85,52.85,0,0,0-.35,74.3a52.85,52.85,0,0,0,74.74,0A52.92,52.92,0,0,0,89.9,37Z" transform="translate(17.8 17)"/></svg>